<svg width="87" height="46" viewBox="0 0 87 46" fill="none" xmlns="http://www.w3.org/2000/svg">
<path fill-rule="evenodd" clip-rule="evenodd" d="M1.85938 18.8125L2.0625 18.3906C2.0625 18.2656 1.96875 18.2031 1.78125 18.2031C1.59375 18.2031 1.27604 18.3438 0.828125 18.625C0.598958 18.7708 0.401042 18.9844 0.234375 19.2656C0.078125 19.5469 0 19.8646 0 20.2188C0 20.5625 0.0885417 20.8958 0.265625 21.2188C0.932292 22.5 2.47396 23.1406 4.89062 23.1406C8.20312 23.1406 11.0573 22.6042 13.4531 21.5312C14.5469 21.0521 15.4948 20.5052 16.2969 19.8906C17.1094 19.276 17.7135 18.6406 18.1094 17.9844C18.5156 17.3281 18.7188 16.625 18.7188 15.875C18.7188 15.125 18.401 14.3854 17.7656 13.6562C17.4948 13.3542 17.1302 13.0573 16.6719 12.7656C16.224 12.474 15.6562 12.1667 14.9688 11.8438C14.2812 11.5208 12.9062 11.0938 10.8438 10.5625C8.85417 10.0521 7.64062 9.5625 7.20312 9.09375C7.04688 8.92708 6.96875 8.71875 6.96875 8.46875C6.96875 8.20833 7.32292 7.77083 8.03125 7.15625C8.73958 6.53125 9.625 5.90104 10.6875 5.26562C11.75 4.61979 13 4.04167 14.4375 3.53125C15.8854 3.02083 17.2448 2.72917 18.5156 2.65625C18.1094 3.15625 17.9062 3.5 17.9062 3.6875C17.9062 3.875 17.9375 4.01042 18 4.09375C18.0625 4.17708 18.1146 4.21875 18.1562 4.21875C18.2083 4.21875 18.2656 4.19792 18.3281 4.15625C18.3906 4.11458 18.776 4.07812 19.4844 4.04688C21.5365 3.95312 22.7917 3.71354 23.25 3.32812L23.4375 3.1875C23.5312 3.125 23.6042 3.0625 23.6562 3C23.7188 2.9375 23.7969 2.8125 23.8906 2.625C23.9844 2.42708 24.0312 2.0625 24.0312 1.53125C24.0312 1 23.3438 0.572917 21.9688 0.25C21.25 0.0833333 20.4219 0 19.4844 0C17.0365 0 14.3802 0.578125 11.5156 1.73438C10.1302 2.29688 8.84896 2.9375 7.67188 3.65625C6.50521 4.375 5.55729 5.19792 4.82812 6.125C4.09896 7.05208 3.73438 8.02604 3.73438 9.04688C3.73438 10.0573 4.19271 10.9167 5.10938 11.625C6.03646 12.3333 7.48958 12.9219 9.46875 13.3906C11.4583 13.849 12.974 14.2708 14.0156 14.6562C15.0573 15.0417 15.5781 15.4583 15.5781 15.9062C15.5781 16.2604 15.2812 16.6771 14.6875 17.1562C14.1042 17.6354 13.3594 18.0938 12.4531 18.5312C11.5573 18.9688 10.5 19.3385 9.28125 19.6406C8.0625 19.9427 6.94271 20.0938 5.92188 20.0938C4.91146 20.0938 3.97917 19.9583 3.125 19.6875C2.28125 19.4062 1.85938 19.1146 1.85938 18.8125ZM30.0781 12.8125C30.6406 12.2917 30.9219 11.6875 30.9219 11C30.9219 10.6979 30.7448 10.4635 30.3906 10.2969C30.0365 10.1302 29.6875 10.0469 29.3438 10.0469C27.9062 10.0469 26.2708 10.5417 24.4375 11.5312C23.6146 11.9688 22.9167 12.5312 22.3438 13.2188C21.7812 13.8958 21.5 14.5417 21.5 15.1562C21.5 15.7604 21.5573 16.2031 21.6719 16.4844C21.7865 16.7552 22.0417 16.9792 22.4375 17.1562C20.4479 17.8958 19.4531 18.9844 19.4531 20.4219C19.4531 21.5156 20.0365 22.3281 21.2031 22.8594C21.8385 23.151 22.6875 23.2969 23.75 23.2969C25.7396 23.2969 27.849 22.3906 30.0781 20.5781C30.1228 20.5415 30.1653 20.5057 30.2054 20.4707C30.3989 21.1441 30.7887 21.7215 31.375 22.2031C31.7828 22.5332 32.2132 22.7864 32.6662 22.9627C31.9629 23.1823 31.246 23.4396 30.5156 23.7344C29.1302 24.2969 27.849 24.9375 26.6719 25.6562C25.5052 26.375 24.5573 27.1979 23.8281 28.125C23.099 29.0521 22.7344 30.026 22.7344 31.0469C22.7344 32.0573 23.1927 32.9167 24.1094 33.625C25.0365 34.3333 26.4896 34.9219 28.4688 35.3906C30.4583 35.849 31.974 36.2708 33.0156 36.6562C34.0573 37.0417 34.5781 37.4583 34.5781 37.9062C34.5781 38.2604 34.2812 38.6771 33.6875 39.1562C33.1042 39.6354 32.3594 40.0938 31.4531 40.5312C30.5573 40.9688 29.5 41.3385 28.2812 41.6406C27.0625 41.9427 25.9427 42.0938 24.9219 42.0938C23.9115 42.0938 22.9792 41.9583 22.125 41.6875C21.2812 41.4062 20.8594 41.1146 20.8594 40.8125L21.0625 40.3906C21.0625 40.2656 20.9688 40.2031 20.7812 40.2031C20.5938 40.2031 20.276 40.3438 19.8281 40.625C19.599 40.7708 19.401 40.9844 19.2344 41.2656C19.0781 41.5469 19 41.8646 19 42.2188C19 42.5625 19.0885 42.8958 19.2656 43.2188C19.9323 44.5 21.474 45.1406 23.8906 45.1406C27.2031 45.1406 30.0573 44.6042 32.4531 43.5312C33.5469 43.0521 34.4948 42.5052 35.2969 41.8906C36.1094 41.276 36.7135 40.6406 37.1094 39.9844C37.5156 39.3281 37.7188 38.625 37.7188 37.875C37.7188 37.125 37.401 36.3854 36.7656 35.6562C36.4948 35.3542 36.1302 35.0573 35.6719 34.7656C35.224 34.474 34.6562 34.1667 33.9688 33.8438C33.2812 33.5208 31.9062 33.0938 29.8438 32.5625C27.8542 32.0521 26.6406 31.5625 26.2031 31.0938C26.0469 30.9271 25.9688 30.7188 25.9688 30.4688C25.9688 30.2083 26.3229 29.7708 27.0312 29.1562C27.7396 28.5312 28.625 27.901 29.6875 27.2656C30.75 26.6198 32 26.0417 33.4375 25.5312C34.8854 25.0208 36.2448 24.7292 37.5156 24.6562C37.1094 25.1562 36.9062 25.5 36.9062 25.6875C36.9062 25.875 36.9375 26.0104 37 26.0938C37.0625 26.1771 37.1146 26.2188 37.1562 26.2188C37.2083 26.2188 37.2656 26.1979 37.3281 26.1562C37.3906 26.1146 37.776 26.0781 38.4844 26.0469C40.5365 25.9531 41.7917 25.7135 42.25 25.3281L42.4375 25.1875C42.5312 25.125 42.6042 25.0625 42.6562 25C42.7188 24.9375 42.7969 24.8125 42.8906 24.625C42.9844 24.4271 43.0312 24.0625 43.0312 23.5312C43.0312 23.1584 42.6926 22.8368 42.0153 22.5666C42.1587 22.4549 42.3151 22.2816 42.4844 22.0469C43.599 20.5469 44.6302 19.276 45.5781 18.2344C46.5365 17.1823 47.6927 15.9948 49.0469 14.6719C50.4115 13.349 51.2656 12.6719 51.6094 12.6406L51.6406 12.6719C50.8698 13.5781 50.4844 14.3906 50.4844 15.1094C50.4844 15.4323 50.5729 15.7135 50.75 15.9531C50.9375 16.1927 51.1927 16.3125 51.5156 16.3125C51.849 16.3125 52.1458 16.1458 52.4062 15.8125C52.8958 15.1562 53.4271 14.3542 54 13.4062C54.5833 12.4479 54.875 11.7656 54.875 11.3594C54.875 10.9531 54.7344 10.625 54.4531 10.375C54.1823 10.1146 53.8333 9.98438 53.4062 9.98438C51.6771 9.98438 49.5833 11.3802 47.125 14.1719L47.7812 13.1875C48.6875 11.8333 49.1406 10.9115 49.1406 10.4219C49.1406 10.1094 49.0156 9.95312 48.7656 9.95312C47.651 9.95312 46.8594 10.25 46.3906 10.8438C46.1406 11.1562 45.8177 11.6562 45.4219 12.3438C45.2344 12.6771 44.6615 13.6458 43.7031 15.25C43.0059 16.4171 42.441 17.3691 42.0085 18.1061C41.8289 18.259 41.6698 18.3955 41.5312 18.5156C41.375 18.6406 41.026 18.875 40.4844 19.2188C39.9531 19.5625 39.4323 19.8438 38.9219 20.0625C38.4219 20.2708 37.7812 20.4688 37 20.6562C36.2188 20.8333 35.4375 20.9219 34.6562 20.9219C33.8854 20.9219 33.3333 20.7396 33 20.375C32.6771 20 32.5156 19.5573 32.5156 19.0469C32.5156 17.776 33.0365 16.5521 34.0781 15.375C34.5573 14.8333 35.0625 14.3438 35.5938 13.9062C36.1354 13.4688 36.7344 13.0521 37.3906 12.6562C38.0469 12.2604 38.6615 12.0625 39.2344 12.0625C39.349 12.0625 39.4062 12.1406 39.4062 12.2969C39.4062 12.4427 39.25 12.7292 38.9375 13.1562C38.625 13.5833 38.4688 13.8802 38.4688 14.0469C38.4688 14.6823 38.8021 15 39.4688 15C40.0417 15 40.6042 14.6094 41.1562 13.8281C41.7188 13.0365 42 12.3594 42 11.7969C42 11.2344 41.776 10.7917 41.3281 10.4688C40.8802 10.1458 40.375 9.98438 39.8125 9.98438C38.6458 9.98438 37.4635 10.2552 36.2656 10.7969C35.0781 11.3385 34.0312 12.0469 33.125 12.9219C32.2292 13.7865 31.4948 14.7969 30.9219 15.9531C30.613 16.5709 30.3874 17.1901 30.245 17.8109C30.1837 17.8395 30.1124 17.8817 30.0312 17.9375C29.875 18.0521 29.4896 18.3594 28.875 18.8594C28.2708 19.349 27.5885 19.8333 26.8281 20.3125C25.9323 20.875 25.0417 21.1562 24.1562 21.1562C22.7708 21.1562 22.0781 20.75 22.0781 19.9375C22.0781 19.4792 23.1771 18.6354 25.375 17.4062C25.4896 17.3438 25.7188 17.2552 26.0625 17.1406C26.4062 17.0156 26.7135 16.8385 26.9844 16.6094C27.2552 16.3802 27.3906 16.1979 27.3906 16.0625C27.3906 15.9167 27.3125 15.724 27.1562 15.4844C27 15.2344 26.8542 15.0729 26.7188 15C26.6562 14.9792 26.5208 14.9688 26.3125 14.9688C26.1146 14.9688 25.7604 15.0573 25.25 15.2344C24.7396 15.401 24.3594 15.4844 24.1094 15.4844C23.8698 15.4844 23.75 15.4427 23.75 15.3594C23.75 15.1094 24.0833 14.7292 24.75 14.2188C25.4167 13.7083 25.9792 13.3229 26.4375 13.0625C26.8958 12.8021 27.3125 12.6094 27.6875 12.4844C27.6458 12.651 27.625 12.8229 27.625 13C27.625 13.1771 27.6615 13.3229 27.7344 13.4375C27.8073 13.5417 27.9583 13.5938 28.1875 13.5938C28.8958 13.5938 29.526 13.3333 30.0781 12.8125ZM40.0127 21.6681C39.7664 21.7911 39.5144 21.9085 39.2568 22.0202C39.5207 22.0344 39.7747 22.0563 40.0188 22.0857C39.9958 22.0322 39.9844 21.9671 39.9844 21.8906C39.9844 21.8212 39.9938 21.747 40.0127 21.6681ZM63.1094 12.8125C63.6719 12.2917 63.9531 11.6875 63.9531 11C63.9531 10.6979 63.776 10.4635 63.4219 10.2969C63.0677 10.1302 62.7188 10.0469 62.375 10.0469C60.9375 10.0469 59.3021 10.5417 57.4688 11.5312C56.6458 11.9688 55.9479 12.5312 55.375 13.2188C54.8125 13.8958 54.5312 14.5417 54.5312 15.1562C54.5312 15.7604 54.5885 16.2031 54.7031 16.4844C54.8177 16.7552 55.0729 16.9792 55.4688 17.1562C53.4792 17.8958 52.4844 18.9844 52.4844 20.4219C52.4844 21.5156 53.0677 22.3281 54.2344 22.8594C54.8698 23.151 55.7188 23.2969 56.7812 23.2969C58.7708 23.2969 60.8802 22.3906 63.1094 20.5781C63.1308 20.5606 63.1517 20.5433 63.1721 20.5261C63.1789 21.2774 63.3716 21.8781 63.75 22.3281C64.1458 22.776 64.7604 23.0781 65.5938 23.2344C65.7292 23.2656 65.875 23.2812 66.0312 23.2812C66.75 23.2812 67.4688 23.0521 68.1875 22.5938C68.9062 22.1354 69.7917 21.4531 70.8438 20.5469C71.3125 20.1406 71.5469 19.6823 71.5469 19.1719C71.5469 18.2344 71.4115 17.7656 71.1406 17.7656C71.0573 17.7656 70.4323 18.2865 69.2656 19.3281C68.8281 19.7135 68.349 20.0729 67.8281 20.4062C67.3073 20.7292 66.8333 20.8906 66.4062 20.8906C65.9792 20.8906 65.7656 20.6875 65.7656 20.2812C65.7656 20.0833 65.7865 19.8281 65.8281 19.5156C65.9219 18.8281 66.724 17.1198 68.2344 14.3906C69.7552 11.651 70.9375 9.63542 71.7812 8.34375C72.0312 8.33333 73.3646 8.20833 75.7812 7.96875C76.0833 7.9375 76.3646 7.84896 76.625 7.70312C76.8958 7.54688 77.0312 7.35938 77.0312 7.14062C77.0312 6.92188 76.9635 6.76042 76.8281 6.65625C76.6927 6.54167 76.5417 6.38021 76.375 6.17188C76.2188 5.95312 76.0781 5.82292 75.9531 5.78125C75.8281 5.72917 75.5938 5.70312 75.25 5.70312C74.9167 5.70312 74.3438 5.73438 73.5312 5.79688C73.5521 5.75521 73.7083 5.50521 74 5.04688C74.3021 4.57812 74.5625 4.16146 74.7812 3.79688C75 3.43229 75.1094 3.20833 75.1094 3.125C75.1094 3.04167 75.0729 2.95312 75 2.85938C74.9271 2.76562 74.8438 2.71875 74.75 2.71875L74.1094 2.5625L73.375 2.65625C73.2188 2.65625 73.1146 2.67708 73.0625 2.71875C73.0104 2.75 72.8177 2.95312 72.4844 3.32812C72.1615 3.70312 71.5625 4.54688 70.6875 5.85938L69.2812 5.92188C69.1354 5.93229 68.9219 5.94271 68.6406 5.95312C68.3698 5.96354 68.1198 5.97396 67.8906 5.98438C67.6719 5.99479 67.4427 6.01042 67.2031 6.03125C66.9635 6.04167 66.6042 6.1875 66.125 6.46875C65.6562 6.75 65.3854 7.00521 65.3125 7.23438C65.2812 7.32812 65.1875 7.45833 65.0312 7.625C64.8854 7.79167 64.8125 7.96354 64.8125 8.14062C64.8125 8.31771 64.9531 8.46875 65.2344 8.59375C65.5156 8.70833 65.8073 8.76562 66.1094 8.76562H66.25C66.4479 8.76562 67.151 8.69792 68.3594 8.5625L68.9531 8.48438C67.8281 10.2552 66.7031 12.151 65.5781 14.1719C64.8906 15.4115 64.3177 16.5833 63.8594 17.6875C63.8178 17.7891 63.7781 17.8892 63.7403 17.988C63.6726 17.8397 63.5716 17.7656 63.4375 17.7656C63.3542 17.7656 63.2292 17.8229 63.0625 17.9375C62.9062 18.0521 62.5208 18.3594 61.9062 18.8594C61.3021 19.349 60.6198 19.8333 59.8594 20.3125C58.9635 20.875 58.0729 21.1562 57.1875 21.1562C55.8021 21.1562 55.1094 20.75 55.1094 19.9375C55.1094 19.4792 56.2083 18.6354 58.4062 17.4062C58.5208 17.3438 58.75 17.2552 59.0938 17.1406C59.4375 17.0156 59.7448 16.8385 60.0156 16.6094C60.2865 16.3802 60.4219 16.1979 60.4219 16.0625C60.4219 15.9167 60.3438 15.724 60.1875 15.4844C60.0312 15.2344 59.8854 15.0729 59.75 15C59.6875 14.9792 59.5521 14.9688 59.3438 14.9688C59.1458 14.9688 58.7917 15.0573 58.2812 15.2344C57.7708 15.401 57.3906 15.4844 57.1406 15.4844C56.901 15.4844 56.7812 15.4427 56.7812 15.3594C56.7812 15.1094 57.1146 14.7292 57.7812 14.2188C58.4479 13.7083 59.0104 13.3229 59.4688 13.0625C59.9271 12.8021 60.3438 12.6094 60.7188 12.4844C60.6771 12.651 60.6562 12.8229 60.6562 13C60.6562 13.1771 60.6927 13.3229 60.7656 13.4375C60.8385 13.5417 60.9896 13.5938 61.2188 13.5938C61.9271 13.5938 62.5573 13.3333 63.1094 12.8125ZM52.2812 33.625C52.2812 33.0833 51.8854 32.8125 51.0938 32.8125C50.75 32.8125 50.4896 32.8646 50.3125 32.9688C50.1458 33.0625 49.9375 33.2969 49.6875 33.6719C49.5938 33.3906 49.3698 33.1562 49.0156 32.9688C48.6615 32.7812 48.2031 32.6875 47.6406 32.6875C46.1823 32.6875 44.5885 33.3646 42.8594 34.7188C42.0365 35.3646 41.2812 36.0833 40.5938 36.875C39.9062 37.6562 39.349 38.526 38.9219 39.4844C38.5052 40.4323 38.2969 41.3802 38.2969 42.3281C38.2969 43.2656 38.5833 44 39.1562 44.5312C39.6042 44.9583 40.1823 45.1719 40.8906 45.1719C41.599 45.1719 42.5104 44.7812 43.625 44C44.75 43.2188 45.7448 42.2656 46.6094 41.1406C46.401 41.6094 46.2969 42.1562 46.2969 42.7812C46.2969 43.3958 46.4948 43.9583 46.8906 44.4688C47.2865 44.9792 47.901 45.2344 48.7344 45.2344C49.3967 45.2344 50.1136 44.9776 50.885 44.4642C50.9264 44.4807 50.9699 44.4978 51.0156 44.5156C51.3802 44.651 51.6719 44.7188 51.8906 44.7188C52.1094 44.7188 52.3906 44.4948 52.7344 44.0469C53.9635 42.4115 55.0208 41.1042 55.9062 40.125C56.7917 39.1458 57.9115 37.9948 59.2656 36.6719C60.6302 35.349 61.4844 34.6719 61.8281 34.6406L61.8594 34.6719C61.8281 34.8698 61.5417 35.375 61 36.1875C60.4583 36.9896 60 37.6979 59.625 38.3125C59.2604 38.9167 58.901 39.6458 58.5469 40.5C58.1927 41.3542 58.0156 42.1198 58.0156 42.7969C58.0156 43.4635 58.2865 44.0312 58.8281 44.5C59.3698 44.9688 59.9167 45.2083 60.4688 45.2188C61.0208 45.2292 61.526 45.1562 61.9844 45C62.6367 44.7658 63.5071 44.1927 64.5958 43.2804C64.6859 43.6912 64.8518 44.0405 65.0938 44.3281C65.4896 44.776 66.1042 45.0781 66.9375 45.2344C67.0729 45.2656 67.2188 45.2812 67.375 45.2812C68.0938 45.2812 68.8125 45.0521 69.5312 44.5938C69.9407 44.3326 70.4043 43.9988 70.922 43.5923C71.0652 43.9551 71.2787 44.2681 71.5625 44.5312C72.0104 44.9583 72.5885 45.1719 73.2969 45.1719C74.0052 45.1719 74.9167 44.7812 76.0312 44C77.1562 43.2188 78.151 42.2656 79.0156 41.1406C78.8073 41.6094 78.7031 42.1562 78.7031 42.7812C78.7031 43.3958 78.901 43.9583 79.2969 44.4688C79.6927 44.9792 80.3073 45.2344 81.1406 45.2344C81.9844 45.2344 82.9167 44.8177 83.9375 43.9844C84.9688 43.151 85.6354 42.4375 85.9375 41.8438C86 41.7188 86.0312 41.4948 86.0312 41.1719C86.0312 40.849 86.0104 40.5365 85.9688 40.2344C85.9271 39.9323 85.8073 39.7812 85.6094 39.7812C85.4844 39.7812 85.3906 39.8073 85.3281 39.8594C85.2656 39.9115 85.0729 40.1146 84.75 40.4688C84.4375 40.8229 84.1146 41.1719 83.7812 41.5156C83.4479 41.849 83.0677 42.1667 82.6406 42.4688C82.2135 42.7604 81.8438 42.9062 81.5312 42.9062C81.2188 42.9062 81.0625 42.6198 81.0625 42.0469C81.0625 41.8594 81.0781 41.7135 81.1094 41.6094C81.2656 40.7656 81.6094 39.75 82.1406 38.5625C82.6823 37.3646 83.1719 36.3854 83.6094 35.625C84.0573 34.8542 84.349 34.401 84.4844 34.2656C84.6198 34.1302 84.6875 33.9167 84.6875 33.625C84.6875 33.0833 84.2917 32.8125 83.5 32.8125C83.1562 32.8125 82.8958 32.8646 82.7188 32.9688C82.5521 33.0625 82.3438 33.2969 82.0938 33.6719C82 33.3906 81.776 33.1562 81.4219 32.9688C81.0677 32.7812 80.6094 32.6875 80.0469 32.6875C78.5885 32.6875 76.9948 33.3646 75.2656 34.7188C74.4427 35.3646 73.6875 36.0833 73 36.875C72.3125 37.6562 71.7552 38.526 71.3281 39.4844C71.0843 40.0392 70.9118 40.594 70.8106 41.1488C70.7454 41.2068 70.6783 41.2665 70.6094 41.3281C70.1719 41.7135 69.6927 42.0729 69.1719 42.4062C68.651 42.7292 68.1771 42.8906 67.75 42.8906C67.3229 42.8906 67.1094 42.6875 67.1094 42.2812C67.1094 42.0833 67.1302 41.8281 67.1719 41.5156C67.2656 40.8281 68.0677 39.1198 69.5781 36.3906C71.099 33.651 72.2812 31.6354 73.125 30.3438C73.375 30.3333 74.7083 30.2083 77.125 29.9688C77.4271 29.9375 77.7083 29.849 77.9688 29.7031C78.2396 29.5469 78.375 29.3594 78.375 29.1406C78.375 28.9219 78.3073 28.7604 78.1719 28.6562C78.0365 28.5417 77.8854 28.3802 77.7188 28.1719C77.5625 27.9531 77.4219 27.8229 77.2969 27.7812C77.1719 27.7292 76.9375 27.7031 76.5938 27.7031C76.2604 27.7031 75.6875 27.7344 74.875 27.7969C74.8958 27.7552 75.0521 27.5052 75.3438 27.0469C75.6458 26.5781 75.9062 26.1615 76.125 25.7969C76.3438 25.4323 76.4531 25.2083 76.4531 25.125C76.4531 25.0417 76.4167 24.9531 76.3438 24.8594C76.2708 24.7656 76.1875 24.7188 76.0938 24.7188L75.4531 24.5625L74.7188 24.6562C74.5625 24.6562 74.4583 24.6771 74.4062 24.7188C74.3542 24.75 74.1615 24.9531 73.8281 25.3281C73.5052 25.7031 72.9062 26.5469 72.0312 27.8594L70.625 27.9219C70.4792 27.9323 70.2656 27.9427 69.9844 27.9531C69.7135 27.9635 69.4635 27.974 69.2344 27.9844C69.0156 27.9948 68.7865 28.0104 68.5469 28.0312C68.3073 28.0417 67.9479 28.1875 67.4688 28.4688C67 28.75 66.7292 29.0052 66.6562 29.2344C66.625 29.3281 66.5312 29.4583 66.375 29.625C66.2292 29.7917 66.1562 29.9635 66.1562 30.1406C66.1562 30.3177 66.2969 30.4688 66.5781 30.5938C66.8594 30.7083 67.151 30.7656 67.4531 30.7656H67.5938C67.7917 30.7656 68.4948 30.6979 69.7031 30.5625L70.2969 30.4844C69.1719 32.2552 68.0469 34.151 66.9219 36.1719C66.2344 37.4115 65.6615 38.5833 65.2031 39.6875C65.1021 39.9342 65.0122 40.1727 64.9334 40.4029C64.6607 40.6532 64.3235 40.9773 63.9219 41.375C63.5156 41.7708 63.0573 42.1354 62.5469 42.4688C62.0469 42.8021 61.6302 42.9688 61.2969 42.9688C60.6719 42.9688 60.3594 42.7396 60.3594 42.2812C60.3594 42.0417 60.4323 41.7396 60.5781 41.375C60.6615 41.1771 60.7396 40.9948 60.8125 40.8281C60.8958 40.6615 61 40.4635 61.125 40.2344C61.2604 40.0052 61.3698 39.8125 61.4531 39.6562C61.5469 39.5 61.6667 39.3073 61.8125 39.0781C61.9583 38.8385 62.0625 38.6719 62.125 38.5781C62.1875 38.4844 62.2812 38.3385 62.4062 38.1406C62.5417 37.9323 62.625 37.8073 62.6562 37.7656C62.6875 37.7135 62.8854 37.4219 63.25 36.8906C63.6146 36.3594 63.9062 35.9219 64.125 35.5781C64.3542 35.224 64.5781 34.8281 64.7969 34.3906C65.0156 33.9427 65.125 33.5625 65.125 33.25C65.125 32.9271 64.9792 32.6354 64.6875 32.375C64.4062 32.1146 64.0208 31.9844 63.5312 31.9844C63.0521 31.9844 62.5104 32.1146 61.9062 32.375C60.6667 32.9062 59.1458 34.1719 57.3438 36.1719L58 35.1875C58.9062 33.8333 59.3594 32.9115 59.3594 32.4219C59.3594 32.1094 59.2344 31.9531 58.9844 31.9531C57.8698 31.9531 57.0781 32.25 56.6094 32.8438C56.3594 33.1562 56.0365 33.6562 55.6406 34.3438C55.4531 34.6771 54.8802 35.6458 53.9219 37.25C52.9635 38.8542 52.25 40.0625 51.7812 40.875C51.6685 41.0723 51.5649 41.2529 51.4705 41.4167C51.4387 41.4497 51.4069 41.4827 51.375 41.5156C51.0417 41.849 50.6615 42.1667 50.2344 42.4688C49.8073 42.7604 49.4375 42.9062 49.125 42.9062C48.8125 42.9062 48.6562 42.6198 48.6562 42.0469C48.6562 41.8594 48.6719 41.7135 48.7031 41.6094C48.8594 40.7656 49.2031 39.75 49.7344 38.5625C50.276 37.3646 50.7656 36.3854 51.2031 35.625C51.651 34.8542 51.9427 34.401 52.0781 34.2656C52.2135 34.1302 52.2812 33.9167 52.2812 33.625ZM43.4844 37.5156C45.3906 35.5365 47.2344 34.5469 49.0156 34.5469C47.599 36.4948 46.651 37.7708 46.1719 38.375C45.7344 38.9167 44.849 39.7656 43.5156 40.9219C42.1823 42.0677 41.3698 42.6406 41.0781 42.6406C40.8698 42.6406 40.7656 42.4583 40.7656 42.0938C40.7656 41.7292 41.0469 41.0521 41.6094 40.0625C42.1823 39.0729 42.8073 38.224 43.4844 37.5156ZM75.8906 37.5156C77.7969 35.5365 79.6406 34.5469 81.4219 34.5469C80.0052 36.4948 79.0573 37.7708 78.5781 38.375C78.1406 38.9167 77.2552 39.7656 75.9219 40.9219C74.5885 42.0677 73.776 42.6406 73.4844 42.6406C73.276 42.6406 73.1719 42.4583 73.1719 42.0938C73.1719 41.7292 73.4531 41.0521 74.0156 40.0625C74.5885 39.0729 75.2135 38.224 75.8906 37.5156Z" fill="#E61643"/>
</svg>
